<svg width="420" height="84" viewBox="0 0 420 84" fill="none" xmlns="http://www.w3.org/2000/svg">
<path fill-rule="evenodd" clip-rule="evenodd" d="M420 0H0V84H420V0ZM52.815 28.91L42 7L31.185 28.91L7.00001 32.445L24.5 49.49L20.37 73.57L42 62.195L63.63 73.57L59.5 49.49L77 32.445L52.815 28.91ZM136.815 28.91L126 7L118.685 28.91L91 32.445L108.5 49.49L104.37 73.57L126 62.195L147.63 73.57L143.5 49.49L161 32.445L136.815 28.91ZM210 7L220.815 28.91L245 32.445L227.5 49.49L231.63 73.57L210 62.195L188.37 73.57L192.5 49.49L175 32.445L202.685 28.91L210 7ZM304.815 28.91L294 7L286.685 28.91L259 32.445L276.5 49.49L272.37 73.57L294 62.195L315.63 73.57L311.5 49.49L329 32.445L304.815 28.91ZM378 7L388.815 28.91L413 32.445L395.5 49.49L399.63 73.57L378 62.195L356.37 73.57L360.5 49.49L343 32.445L370.685 28.91L378 7Z" fill="white"/>
</svg>
