<svg xmlns="http://www.w3.org/2000/svg" xmlns:xlink="http://www.w3.org/1999/xlink" version="1.1" id="Capa_1" x="0px" y="0px" style="enable-background:new 0 0 150 150;" xml:space="preserve" viewBox="20.8 0 107.2 150">
<style type="text/css">
	.st0{clip-path:url(#SVGID_00000132792481236066099630000000355021138315325569_);}
	.st1{fill:#4280EF;}
	.st2{fill:#34A353;}
	.st3{fill:#F6B704;}
	.st4{fill:#E54335;}
</style>
<g>
	<defs>
		<rect id="SVGID_1_" x="20.8" width="107.2" height="150"/>
	</defs>
	<clipPath id="SVGID_00000179608355352751923020000012653291505568160682_">
		<use xlink:href="#SVGID_1_" style="overflow:visible;"/>
	</clipPath>
	<g style="clip-path:url(#SVGID_00000179608355352751923020000012653291505568160682_);">
		<path class="st1" d="M120,76.1c0-3.1-0.3-6.3-0.8-9.3H75.9v17.7h24.8c-1,5.7-4.3,10.7-9.2,13.9l14.8,11.5    C115,101.8,120,90,120,76.1L120,76.1z"/>
		<path class="st2" d="M75.9,120.9c12.4,0,22.8-4.1,30.4-11.1L91.5,98.4c-4.1,2.8-9.4,4.4-15.6,4.4c-12,0-22.1-8.1-25.8-18.9    L34.9,95.6C42.7,111.1,58.5,120.9,75.9,120.9z"/>
		<path class="st3" d="M50.1,83.8c-1.9-5.7-1.9-11.9,0-17.6L34.9,54.4c-6.5,13-6.5,28.3,0,41.2L50.1,83.8z"/>
		<path class="st4" d="M75.9,47.3c6.5-0.1,12.9,2.4,17.6,6.9L106.6,41c-8.3-7.8-19.3-12-30.7-11.9c-17.4,0-33.2,9.8-41,25.3    l15.2,11.8C53.8,55.3,63.9,47.3,75.9,47.3z"/>
	</g>
</g>
</svg>