<?xml version="1.0" encoding="utf-8"?>
<svg xmlns="http://www.w3.org/2000/svg" style="margin: auto; background: none; display: block; shape-rendering: auto; animation-play-state: running; animation-delay: 0s;" width="280" height="195" preserveAspectRatio="xMidYMid">
<style type="text/css" style="animation-play-state: running; animation-delay: 0s;">
  text {
    text-anchor: middle; font-size: 80px; opacity: 0;
  }
</style>
<g style="transform-origin: 140px 97.5px; transform: scale(1); animation-play-state: running; animation-delay: 0s;">
<g transform="translate(140,97.5)" style="animation-play-state: running; animation-delay: 0s;">
  <g transform="translate(0,0)" style="animation-play-state: running; animation-delay: 0s;"><g class="path" style="transform: matrix(1, 0, 0, 1, 0, 0); transform-origin: -96.24px -7.61234px; animation: 1s linear -0.565714s infinite normal forwards running bounce-6142e5b4-3d8f-4af2-893e-75c9f20f00aa;"><path d="M16.88 0L3.04 0L3.04-68.72L30.56-68.72L30.56-55.36L16.88-55.36L16.88-44.40L29.84-44.40L29.84-31.20L16.88-31.20L16.88 0" fill="#1c3b5e" stroke="none" stroke-width="none" transform="translate(-113.04000854492188,26.747657209123886)" style="fill: rgb(28, 59, 94); animation-play-state: running; animation-delay: 0s;"></path></g><g class="path" style="transform: matrix(1, 0, 0, 1, 0, 0); transform-origin: -66.28px -2.89234px; animation: 1s linear -0.471429s infinite normal forwards running bounce-6142e5b4-3d8f-4af2-893e-75c9f20f00aa;"><path d="M34.72 0L34.72-58.56L48.72-58.56L48.72-52.08L48.72-52.08Q49.76-55.52 52.36-57.40L52.36-57.40L52.36-57.40Q54.96-59.28 58.80-59.28L58.80-59.28L58.80-47.60L58.80-47.60Q55.84-47.60 52.28-46.76L52.28-46.76L52.28-46.76Q48.72-45.92 48.72-44.80L48.72-44.80L48.72 0L34.72 0" fill="#1c3b5e" stroke="none" stroke-width="none" transform="translate(-113.04000854492188,26.747657209123886)" style="fill: rgb(70, 116, 169); animation-play-state: running; animation-delay: 0s;"></path></g><g class="path" style="transform: matrix(1, 0, 0, 1, 0, 0); transform-origin: -34.04px -2.53234px; animation: 1s linear -0.377143s infinite normal forwards running bounce-6142e5b4-3d8f-4af2-893e-75c9f20f00aa;"><path d="M78.64 0.64L78.64 0.64Q69.60 0.64 65.68-4.32L65.68-4.32L65.68-4.32Q61.76-9.28 61.76-19.12L61.76-19.12L61.76-42.64L61.76-42.64Q61.76-50.72 66.40-54.96L66.40-54.96L66.40-54.96Q71.04-59.20 79.36-59.20L79.36-59.20L79.36-59.20Q96.24-59.20 96.24-42.64L96.24-42.64L96.24-38.40L96.24-38.40Q96.24-32 96.08-28L96.08-28L75.76-28L75.76-16.64L75.76-16.64Q75.76-13.60 76.40-11.88L76.40-11.88L76.40-11.88Q77.04-10.16 79.12-10.16L79.12-10.16L79.12-10.16Q80.72-10.16 81.40-11.12L81.40-11.12L81.40-11.12Q82.08-12.08 82.20-13.32L82.20-13.32L82.20-13.32Q82.32-14.56 82.32-16.96L82.32-16.96L82.32-22.64L96.24-22.64L96.24-19.28L96.24-19.28Q96.24-9.04 92.28-4.20L92.28-4.20L92.28-4.20Q88.32 0.64 78.64 0.64L78.64 0.64zM75.68-34.96L82.32-34.96L82.32-42.48L82.32-42.48Q82.32-48.80 79.20-48.80L79.20-48.80L79.20-48.80Q75.68-48.80 75.68-42.48L75.68-42.48L75.68-34.96" fill="#1c3b5e" stroke="none" stroke-width="none" transform="translate(-113.04000854492188,26.747657209123886)" style="fill: rgb(255, 128, 74); animation-play-state: running; animation-delay: 0s;"></path></g><g class="path" style="transform: matrix(1, 0, 0, 1, 0, 0); transform-origin: 4.99999px -2.53234px; animation: 1s linear -0.282857s infinite normal forwards running bounce-6142e5b4-3d8f-4af2-893e-75c9f20f00aa;"><path d="M117.68 0.64L117.68 0.64Q108.64 0.64 104.72-4.32L104.72-4.32L104.72-4.32Q100.80-9.28 100.80-19.12L100.80-19.12L100.80-42.64L100.80-42.64Q100.80-50.72 105.44-54.96L105.44-54.96L105.44-54.96Q110.08-59.20 118.40-59.20L118.40-59.20L118.40-59.20Q135.28-59.20 135.28-42.64L135.28-42.64L135.28-38.40L135.28-38.40Q135.28-32 135.12-28L135.12-28L114.80-28L114.80-16.64L114.80-16.64Q114.80-13.60 115.44-11.88L115.44-11.88L115.44-11.88Q116.08-10.16 118.16-10.16L118.16-10.16L118.16-10.16Q119.76-10.16 120.44-11.12L120.44-11.12L120.44-11.12Q121.12-12.08 121.24-13.32L121.24-13.32L121.24-13.32Q121.36-14.56 121.36-16.96L121.36-16.96L121.36-22.64L135.28-22.64L135.28-19.28L135.28-19.28Q135.28-9.04 131.32-4.20L131.32-4.20L131.32-4.20Q127.36 0.64 117.68 0.64L117.68 0.64zM114.72-34.96L121.36-34.96L121.36-42.48L121.36-42.48Q121.36-48.80 118.24-48.80L118.24-48.80L118.24-48.80Q114.72-48.80 114.72-42.48L114.72-42.48L114.72-34.96" fill="#1c3b5e" stroke="none" stroke-width="none" transform="translate(-113.04000854492188,26.747657209123886)" style="fill: rgb(198, 198, 198); animation-play-state: running; animation-delay: 0s;"></path></g><g class="path" style="transform: matrix(1, 0, 0, 1, 0, 0); transform-origin: 41.28px -7.61234px; animation: 1s linear -0.188571s infinite normal forwards running bounce-6142e5b4-3d8f-4af2-893e-75c9f20f00aa;"><path d="M154.40 0L140.56 0L140.56-68.72L168.08-68.72L168.08-55.36L154.40-55.36L154.40-44.40L167.36-44.40L167.36-31.20L154.40-31.20L154.40 0" fill="#1c3b5e" stroke="none" stroke-width="none" transform="translate(-113.04000854492188,26.747657209123886)" style="fill: rgb(28, 59, 94); animation-play-state: running; animation-delay: 0s;"></path></g><g class="path" style="transform: matrix(1, 0, 0, 1, 0, 0); transform-origin: 74.72px 2.34766px; animation: 1s linear -0.0942857s infinite normal forwards running bounce-6142e5b4-3d8f-4af2-893e-75c9f20f00aa;"><path d="M171.12 9.76L171.12 0.88L177.84 0.88L177.84 0.88Q179.28 0.88 179.28-0.32L179.28-0.32L179.28-0.32Q179.28-0.88 179.20-1.20L179.20-1.20L170.08-58.56L183.44-58.56L186.08-30L187.36-15.44L188.88-30L192-58.56L205.44-58.56L194.56 3.04L194.56 3.04Q194 6.48 192.28 8.12L192.28 8.12L192.28 8.12Q190.56 9.76 186.88 9.76L186.88 9.76L171.12 9.76" fill="#1c3b5e" stroke="none" stroke-width="none" transform="translate(-113.04000854492188,26.747657209123886)" style="fill: rgb(70, 116, 169); animation-play-state: running; animation-delay: 0s;"></path></g><g class="path" style="transform: matrix(1, 0, 0, 1, 0, 0); transform-origin: 105.32px -7.29234px; animation: 1s linear 0s infinite normal forwards running bounce-6142e5b4-3d8f-4af2-893e-75c9f20f00aa;"><path d="M221.20 0.64L221.20 0.64Q215.68 0.64 213.60-1.68L213.60-1.68L213.60-1.68Q211.52-4 211.52-9.12L211.52-9.12L211.52-45.68L207.60-45.68L207.60-56.32L211.52-56.32L211.52-68.72L225.12-68.72L225.12-56.32L229.12-56.32L229.12-45.68L225.12-45.68L225.12-12.80L225.12-12.80Q225.12-11.28 225.36-10.56L225.36-10.56L225.36-10.56Q225.60-9.84 226.64-9.84L226.64-9.84L226.64-9.84Q227.44-9.84 228.16-9.92L228.16-9.92L228.16-9.92Q228.88-10 229.12-10L229.12-10L229.12-0.40L229.12-0.40Q227.92-0.08 225.64 0.28L225.64 0.28L225.64 0.28Q223.36 0.64 221.20 0.64L221.20 0.64" fill="#1c3b5e" stroke="none" stroke-width="none" transform="translate(-113.04000854492188,26.747657209123886)" style="fill: rgb(255, 128, 74); animation-play-state: running; animation-delay: 0s;"></path></g></g>
</g>
</g>
<style id="bounce-6142e5b4-3d8f-4af2-893e-75c9f20f00aa" data-anikit="">@keyframes bounce-6142e5b4-3d8f-4af2-893e-75c9f20f00aa
{
  0% {
    animation-timing-function: cubic-bezier(0.1361,0.2514,0.2175,0.8786);
    transform: translate(0,0px) scaleY(1);
  }
  37% {
    animation-timing-function: cubic-bezier(0.7674,0.1844,0.8382,0.7157);
    transform: translate(0,-39.96px) scaleY(1);
  }
  72% {
    animation-timing-function: cubic-bezier(0.1118,0.2149,0.2172,0.941);
    transform: translate(0,0px) scaleY(1);
  }
  87% {
    animation-timing-function: cubic-bezier(0.7494,0.2259,0.8209,0.6963);
    transform: translate(0,19.900000000000002px) scaleY(0.602);
  }
  100% {
    transform: translate(0,0px) scaleY(1);
  }
}</style></svg>